<?xml version="1.0" standalone="no"?>
<!DOCTYPE svg PUBLIC "-//W3C//DTD SVG 20010904//EN"
 "http://www.w3.org/TR/2001/REC-SVG-20010904/DTD/svg10.dtd">
<svg version="1.0" xmlns="http://www.w3.org/2000/svg"
 width="207.000000pt" height="207.000000pt" viewBox="0 0 207.000000 207.000000"
 preserveAspectRatio="xMidYMid meet">
<metadata>
Created by potrace 1.14, written by Peter Selinger 2001-2017
</metadata>
<g transform="translate(0.000000,207.000000) scale(0.100000,-0.100000)"
fill="#000000" stroke="none">
<path d="M777 1538 l-27 -10 25 -30 c14 -16 25 -40 25 -53 0 -13 5 -27 12 -31
8 -5 6 -11 -6 -19 -9 -7 -14 -19 -11 -26 7 -19 45 -43 45 -29 0 6 -7 13 -15
16 -21 8 -19 21 5 27 16 4 20 0 21 -21 l1 -27 10 28 c12 34 4 59 -16 51 -21
-8 -39 38 -38 94 1 23 1 42 -1 41 -1 0 -14 -5 -30 -11z m23 -24 c0 -8 -4 -12
-10 -9 -5 3 -10 10 -10 16 0 5 5 9 10 9 6 0 10 -7 10 -16z"/>
<path d="M1017 1540 c-3 -8 -8 -32 -12 -53 -3 -22 -10 -35 -16 -31 -6 3 -5 -4
3 -15 12 -20 14 -18 25 31 13 53 13 100 0 68z"/>
<path d="M948 1534 c-5 -4 -8 -16 -8 -26 0 -11 -7 -18 -19 -18 -28 0 -34 -15
-19 -47 16 -34 12 -97 -5 -86 -7 4 -5 -2 3 -12 14 -17 15 -15 18 23 2 27 8 42
16 42 19 0 40 27 27 34 -5 4 -11 0 -13 -8 -2 -10 -9 -6 -22 12 -16 21 -17 24
-4 19 9 -3 22 0 28 8 12 15 10 72 -2 59z"/>
<path d="M703 1403 c-18 -12 -20 -19 -12 -34 11 -21 31 -26 28 -6 -4 31 4 39
12 12 6 -20 5 -31 -2 -34 -16 -5 -59 -54 -53 -61 3 -3 15 6 26 20 15 19 28 24
51 21 30 -3 31 -2 16 15 -9 11 -20 34 -24 52 -7 36 -11 37 -42 15z"/>
<path d="M1230 1358 c-78 -40 -94 -114 -24 -112 15 0 36 -8 46 -18 10 -10 25
-18 34 -18 12 0 14 -5 9 -17 -4 -10 -9 -31 -11 -48 -3 -24 -1 -22 9 10 l13 40
69 8 c44 5 72 13 78 22 4 8 16 15 26 15 10 0 24 7 31 15 25 30 -41 106 -105
121 l-30 7 26 -30 c38 -46 54 -90 39 -108 -17 -21 -73 -34 -122 -30 -71 8 -84
35 -48 105 34 67 28 72 -40 38z"/>
<path d="M607 1339 c6 -6 9 -18 6 -25 -3 -10 2 -14 18 -13 17 0 20 2 9 7 -26
12 -24 34 2 27 18 -5 20 -4 8 4 -21 15 -58 15 -43 0z"/>
<path d="M790 1306 c0 -10 28 -13 41 -5 10 6 7 9 -13 9 -16 0 -28 -2 -28 -4z"/>
<path d="M1300 1294 c0 -8 5 -12 10 -9 6 3 10 10 10 16 0 5 -4 9 -10 9 -5 0
-10 -7 -10 -16z"/>
<path d="M1390 1300 c0 -5 5 -10 10 -10 6 0 10 5 10 10 0 6 -4 10 -10 10 -5 0
-10 -4 -10 -10z"/>
<path d="M1105 1280 c-16 -18 -16 -20 -2 -20 9 0 21 9 27 20 6 11 7 20 2 20
-5 0 -17 -9 -27 -20z"/>
<path d="M80 1280 c0 -5 5 -10 10 -10 6 0 10 5 10 10 0 6 -4 10 -10 10 -5 0
-10 -4 -10 -10z"/>
<path d="M750 1271 c0 -5 -9 -11 -20 -14 -13 -3 -18 -10 -14 -21 5 -12 0 -16
-19 -16 -14 0 -28 -4 -31 -8 -2 -4 18 -8 45 -7 48 0 60 10 38 32 -7 7 -6 12 5
16 12 5 16 0 16 -18 0 -14 5 -25 10 -25 11 0 12 15 4 48 -6 21 -34 32 -34 13z"/>
<path d="M1350 1270 c0 -5 5 -10 10 -10 6 0 10 5 10 10 0 6 -4 10 -10 10 -5 0
-10 -4 -10 -10z"/>
<path d="M137 1246 c-15 -23 -15 -24 6 -30 34 -9 75 -7 82 4 7 12 -16 50 -31
50 -6 0 -11 -7 -11 -15 0 -8 4 -15 9 -15 4 0 8 -4 8 -10 0 -14 -26 -12 -39 3
-8 10 -7 17 1 25 8 8 8 12 1 12 -6 0 -18 -11 -26 -24z"/>
<path d="M472 1230 c-1 -23 3 -38 9 -35 5 4 9 14 9 25 0 10 7 21 16 24 11 4
14 2 11 -6 -19 -48 -19 -53 2 -29 27 30 28 55 1 48 -11 -3 -23 -1 -26 4 -12
20 -22 7 -22 -31z"/>
<path d="M1517 1242 c-9 -10 -17 -24 -17 -32 0 -7 9 -1 21 14 23 29 40 27 32
-4 -9 -36 -31 -45 -62 -27 -27 16 -76 13 -66 -4 3 -4 12 -6 19 -3 18 7 61 -30
52 -44 -12 -19 -74 -15 -79 6 -4 16 -5 16 -6 0 -1 -14 -5 -16 -26 -8 -14 5
-25 6 -25 1 0 -13 97 -32 125 -25 24 6 39 29 29 45 -9 16 39 10 58 -8 17 -15
27 -5 11 11 -5 4 -8 27 -8 49 0 35 -4 43 -21 45 -11 2 -28 -6 -37 -16z"/>
<path d="M404 1219 c-10 -16 11 -31 37 -26 21 4 21 4 -5 6 -21 1 -27 5 -22 16
6 17 0 20 -10 4z"/>
<path d="M1102 1196 c-11 -25 -62 -46 -109 -46 -13 0 -23 -4 -23 -9 0 -5 6 -9
13 -8 45 1 69 -17 26 -20 -25 -2 -69 -30 -69 -43 0 -14 43 -4 103 23 39 17 54
31 73 69 28 55 28 58 11 58 -8 0 -19 -11 -25 -24z"/>
<path d="M223 1131 c-10 -10 -25 -21 -33 -24 -10 -4 -9 -6 6 -6 11 -1 29 -10
39 -21 10 -11 23 -20 28 -20 5 0 -2 11 -18 26 -26 24 -26 26 -10 45 23 24 12
25 -12 0z"/>
<path d="M592 1115 c6 -14 13 -23 16 -21 7 7 -9 46 -18 46 -5 0 -4 -11 2 -25z"/>
<path d="M1796 1131 c-4 -7 -5 -15 -2 -18 9 -9 19 4 14 18 -4 11 -6 11 -12 0z"/>
<path d="M485 1108 c-62 -49 -84 -171 -45 -248 23 -46 45 -59 120 -75 72 -15
96 -7 118 34 10 21 34 44 63 59 45 24 47 24 102 8 44 -13 62 -25 84 -54 47
-64 39 -62 264 -62 l208 0 36 48 c48 62 67 71 146 72 62 0 68 -2 102 -35 19
-19 38 -43 42 -54 5 -15 13 -19 33 -16 15 2 49 7 76 10 27 3 58 13 69 22 43
40 59 134 36 217 -12 42 -52 90 -72 83 -23 -7 -38 -98 -34 -199 3 -79 1 -98
-10 -98 -7 0 -16 7 -19 15 -4 8 -10 12 -15 9 -5 -3 -7 -10 -4 -15 4 -5 -6 -9
-20 -9 -18 0 -31 9 -42 28 -30 52 -80 77 -154 77 -54 0 -72 -5 -106 -27 -23
-15 -47 -40 -54 -56 -11 -26 -20 -30 -63 -36 -89 -10 -176 -7 -176 7 0 9 -3 8
-9 -2 -6 -10 -29 -12 -90 -10 l-81 4 -41 48 c-51 59 -85 77 -147 77 -38 0 -58
-6 -90 -29 -22 -16 -43 -34 -46 -40 -4 -6 -13 -8 -21 -4 -11 4 -15 -2 -15 -21
0 -22 -5 -26 -28 -26 l-27 0 3 74 c3 56 -1 93 -18 150 -28 93 -38 103 -75 74z
m175 -298 c0 -5 -2 -10 -4 -10 -3 0 -8 5 -11 10 -3 6 -1 10 4 10 6 0 11 -4 11
-10z"/>
<path d="M1150 1096 c0 -8 5 -18 10 -21 6 -3 10 3 10 14 0 12 -4 21 -10 21 -5
0 -10 -6 -10 -14z"/>
<path d="M737 1074 c-13 -13 15 -34 45 -34 23 0 29 4 26 18 -3 17 -57 30 -71
16z"/>
<path d="M1232 1063 c2 -13 14 -19 41 -21 33 -3 38 -1 35 15 -2 13 -14 19 -41
21 -33 3 -38 1 -35 -15z"/>
<path d="M608 1065 c-8 -9 3 -45 13 -45 5 0 9 6 9 13 0 17 -15 39 -22 32z"/>
<path d="M1780 1049 c0 -11 5 -17 10 -14 6 3 10 13 10 21 0 8 -4 14 -10 14 -5
0 -10 -9 -10 -21z"/>
<path d="M1150 1026 c0 -8 5 -18 10 -21 6 -3 10 3 10 14 0 12 -4 21 -10 21 -5
0 -10 -6 -10 -14z"/>
<path d="M1782 980 c0 -14 2 -19 5 -12 2 6 2 18 0 25 -3 6 -5 1 -5 -13z"/>
<path d="M620 976 c0 -8 5 -18 10 -21 6 -3 10 3 10 14 0 12 -4 21 -10 21 -5 0
-10 -6 -10 -14z"/>
<path d="M35 960 c3 -5 15 -15 26 -21 18 -9 19 -9 7 10 -7 12 -19 21 -26 21
-7 0 -10 -4 -7 -10z"/>
<path d="M1150 955 c0 -8 5 -15 10 -15 6 0 10 7 10 15 0 8 -4 15 -10 15 -5 0
-10 -7 -10 -15z"/>
<path d="M630 901 c0 -11 5 -23 10 -26 6 -4 10 5 10 19 0 14 -4 26 -10 26 -5
0 -10 -9 -10 -19z"/>
<path d="M1782 900 c0 -14 2 -19 5 -12 2 6 2 18 0 25 -3 6 -5 1 -5 -13z"/>
<path d="M746 855 c-41 -22 -55 -44 -56 -88 0 -75 53 -127 131 -127 42 0 109
69 109 112 0 90 -101 146 -184 103z m87 -60 c1 -5 -8 -11 -21 -13 -20 -3 -22
-7 -17 -34 5 -21 4 -29 -5 -26 -6 2 -12 8 -12 13 -1 6 -8 15 -17 22 -14 10
-14 13 4 33 19 21 64 25 68 5z m27 -28 c0 -17 -38 -52 -47 -44 -10 11 15 57
32 57 8 0 15 -6 15 -13z"/>
<path d="M1161 854 c0 -11 3 -14 6 -6 3 7 2 16 -1 19 -3 4 -6 -2 -5 -13z"/>
<path d="M1535 859 c-52 -16 -85 -54 -85 -98 0 -41 32 -102 63 -117 43 -23
112 -22 138 2 75 67 61 173 -27 210 -38 16 -47 16 -89 3z m81 -83 c17 -18 18
-34 2 -50 -35 -34 -78 -24 -78 18 0 42 46 61 76 32z"/>
<path d="M1577 756 c-4 -10 -5 -21 -2 -24 9 -9 17 6 13 25 -3 17 -4 17 -11 -1z"/>
</g>
</svg>
